<?xml version="1.0" encoding="utf-8"?>
<!-- Generator: Adobe Illustrator 27.1.1, SVG Export Plug-In . SVG Version: 6.00 Build 0)  -->
<svg version="1.1" id="Warstwa_1" xmlns="http://www.w3.org/2000/svg" xmlns:xlink="http://www.w3.org/1999/xlink" x="0px" y="0px"
	 viewBox="0 0 48 48" style="enable-background:new 0 0 48 48;" xml:space="preserve">
<style type="text/css">
	.st0{fill:url(#SVGID_1_);}
</style>
<linearGradient id="SVGID_1_" gradientUnits="userSpaceOnUse" x1="12.6281" y1="4.3033" x2="35.3719" y2="43.6967">
	<stop  offset="0" style="stop-color:#14B8A6"/>
	<stop  offset="1" style="stop-color:#0284C7"/>
</linearGradient>
<path class="st0" d="M7,8l3.7,7.6h6.5L13.5,8H18l3.7,7.6h6.5L24.5,8h4.5l3.7,7.6h6.5L35.4,8H41c0.8,0,1.5,0.3,2.1,0.9
	C43.7,9.5,44,10.2,44,11v26c0,0.8-0.3,1.5-0.9,2.1C42.5,39.7,41.8,40,41,40H7c-0.8,0-1.5-0.3-2.1-0.9C4.3,38.5,4,37.8,4,37V11
	c0-0.8,0.3-1.5,0.9-2.1C5.5,8.3,6.2,8,7,8z"/>
</svg>
